<svg width="128px" height="128px" viewBox="0 0 128 128" version="1.1" xmlns="http://www.w3.org/2000/svg" xmlns:xlink="http://www.w3.org/1999/xlink">
    <g id="Page-1" stroke="none" stroke-width="1" fill="none" fill-rule="evenodd">
        <g id="wordmark_1" fill="#000000" fill-rule="nonzero">
            <path d="M61.374277,62.673495 C61.20663,63.0324781 61.1151523,63.4338474 61.120386,63.8565457 C61.1296797,64.6071366 61.4421609,65.282944 61.9399287,65.7689508 L2.35717549,126.84578 C1.60325549,127.61822 0.293534335,127.080324 0.308425926,126.000832 C0.641006243,102.111445 2.4537896,73.5815029 15.0947514,60.6236855 L37.0682821,38.099163 C37.0772643,38.0899579 37.0863837,38.080885 37.095637,38.0719543 L15.0954913,60.6237595 C21.7968073,53.7544206 34.8602599,50.4587573 61.374277,62.673495 Z M62.6761052,66.2817816 C63.0387808,66.4537843 63.4452907,66.5478272 63.873711,66.5425226 C64.6203515,66.5332779 65.2929936,66.2240286 65.7784267,65.7308239 L126.84578,125.304601 C127.61822,126.058543 127.080324,127.368139 126.000832,127.352738 C102.111445,127.020393 73.5815029,125.207676 60.6236855,112.566751 L60.5585118,112.503171 C53.7328632,105.782866 50.496377,92.7164121 62.6761052,66.2817816 Z M66.2957048,64.9936151 C66.4697674,64.6292207 66.5650258,64.2203021 66.559688,63.7891976 C66.5503852,63.0378696 66.237299,62.361472 65.7386781,61.8753612 L125.303121,0.817291098 C126.057064,0.044467052 127.366659,0.582429595 127.351986,1.66198012 C127.019653,25.5516116 125.206936,54.0812578 112.565272,67.0392231 L112.465741,67.1412517 C105.735211,73.9398485 92.6720075,77.1429899 66.2957048,64.9936151 Z M64.9947707,61.3596206 C64.6344254,61.1903776 64.2311651,61.0979609 63.8063629,61.1032207 C63.0508267,61.1125756 62.3710626,61.4291264 61.8843762,61.9326264 L0.816203468,2.35825572 C0.043379422,1.60433572 0.581341965,0.294614566 1.66089249,0.309513431 C25.5505017,0.642093873 54.080222,2.45487723 67.0381873,15.0958613 L89.5630058,37.0693919 C89.5695923,37.0758455 89.5761121,37.0823698 89.5825615,37.0889638 L67.0377434,15.0954913 C73.9055293,21.7955724 77.2016531,34.8554455 64.9947707,61.3596206 Z M94.0733418,85.9952258 L90.592185,89.5637457 C90.5886639,89.567349 90.585122,89.5709322 90.5815594,89.5744947 L94.0733418,85.9952258 Z" id="Combined-Shape"></path>
        </g>
    </g>
</svg>