<svg viewBox="0 0 226 227">
    <path fill="#000000" d="M68.3515982,113.877064 C68.3515982,105.513997 69.9729315,97.4030642 73.1702648,89.7707977 C76.2598647,82.3958646 80.6838646,75.7718647 86.3187978,70.0827982 C87.5557311,68.8333316 88.8374644,67.6437316 90.1619977,66.5145316 L90.1843977,161.254663 C88.8526644,160.119996 87.5619977,158.926663 86.3187978,157.671996 C80.6838646,151.982663 76.2598647,145.358663 73.1702648,137.983997 C69.9729315,130.351063 68.3515982,122.240664 68.3515982,113.877064"></path>
    <path fill="#000000" d="M173.073329,157.671996 C167.438662,163.361329 160.877329,167.827996 153.573329,170.947996 C146.01333,174.175996 137.979996,175.811996 129.696397,175.811996 C122.471864,175.811996 115.437464,174.566662 108.741731,172.106662 L190.121329,124.647864 C189.327995,129.218797 188.026662,133.67733 186.222662,137.983997 C183.133329,145.358663 178.709329,151.982663 173.073329,157.671996"></path>
    <path fill="#000000" d="M101.199997,168.741329 C101.185464,168.733329 101.170797,168.725329 101.156797,168.717329 L131.059997,116.42453 L190.989328,116.42453 C190.963995,117.087464 190.926662,117.748397 190.879995,118.40733 L103.002664,169.655996 C102.396397,169.359996 101.794797,169.055996 101.199997,168.741329"></path>
    <path fill="#000000" d="M190.990662,111.360397 C190.990662,111.36093 190.990662,111.361997 190.990662,111.36253 L131.018663,111.36253 L131.018663,111.370797 L101.186397,59.0187985 C101.187997,59.0187985 101.189597,59.0171985 101.191197,59.0161318 C101.777597,58.7051985 102.369731,58.4051985 102.967197,58.1135985 L190.881328,109.371331 C190.927995,110.032797 190.965328,110.695864 190.990662,111.360397"></path>
    <path fill="#000000" d="M153.573329,56.8067985 C160.877329,59.9265318 167.438662,64.3931983 173.073329,70.0827982 C178.709329,75.7718647 183.133329,82.3958646 186.222662,89.7707977 C188.029329,94.0854643 189.333329,98.5530642 190.125329,103.132264 L108.710397,55.6587986 C115.415597,53.1906653 122.460397,51.9411987 129.696397,51.9411987 C137.979996,51.9411987 146.01333,53.5786653 153.573329,56.8067985"></path>
    <path fill="#000000" d="M126.689597,113.893197 L126.692663,113.898397 L126.68693,113.894797 L96.8729308,166.214662 C96.8682642,166.211996 96.8630642,166.209329 96.8578642,166.205329 C96.6478642,166.070662 95.1578642,165.078662 95.1578642,165.075996 L95.1333309,62.6947984 C95.6775975,62.3187984 96.2275975,61.9521317 96.7833308,61.5947984 C96.7838642,61.5947984 96.7838642,61.5947984 96.7843975,61.5947984 L126.689597,113.893197"></path>
    <path fill="#000000" d="M129.696397,180.590662 C163.599996,180.590662 191.538662,154.810663 195.334662,121.607864 C195.439995,120.681197 195.526662,119.74893 195.594662,118.811464 C195.594662,118.803064 195.595995,118.794797 195.595995,118.785997 L225.838661,171.671996 L194.245328,226.918661 L131.059997,226.918661 L100.709331,173.843996 C101.635464,174.301329 102.572931,174.737329 103.522397,175.150662 C111.548397,178.650662 120.397864,180.590662 129.696397,180.590662"></path>
    <path fill="#000000" d="M195.605328,109.103597 C195.605328,109.101064 195.605328,109.098397 195.605328,109.095864 C195.535995,108.115064 195.447995,107.140131 195.337328,106.171331 C191.553328,72.9562648 163.607996,47.1639988 129.696397,47.1639988 C120.386397,47.1639988 111.527064,49.1093321 103.493197,52.616132 C102.592664,53.009332 101.702664,53.4229319 100.823464,53.8546653 L131.123997,0.866666595 L194.309328,0.866666595 L225.902661,56.1135985 L195.605328,109.103597"></path>
    <path fill="#000000" d="M92.7750643,169.211996 L31.9526658,169.211996 L0.359893249,113.965597 L31.9526658,58.7187985 L92.5193309,58.7187985 C92.5119976,58.7239985 92.5041309,58.7291985 92.4963976,58.7349318 C91.705731,59.2786651 90.9259977,59.8401318 90.1603977,60.4187984 C74.0478647,72.5838648 63.6193317,92.0015976 63.6193317,113.877064 C63.6193317,135.763997 74.0593314,155.190663 90.1854643,167.354662 C91.033331,167.994662 91.896931,168.614662 92.7750643,169.211996"></path>
</svg>