<svg viewBox="0 0 128 128">
  <path fill="#000000" d="M64,127.8945 C46.933,127.8945 30.888,121.248 18.82,109.18 C6.752,97.112 0.1055,81.067 0.1055,64 C0.1055,46.933 6.752,30.888 18.82,18.82 C30.888,6.7515 46.933,0.105 64,0.105 C81.067,0.105 97.112,6.751 109.18,18.8195 C121.248,30.8875 127.8945,46.9325 127.8945,63.9995 C127.8945,81.0665 121.248,97.1115 109.18,109.1795 C97.112,121.2475 81.067,127.894 64,127.894 L64,127.8945 Z M64,7.076 C48.795,7.076 34.5,12.997 23.7485,23.7485 C12.997,34.5 7.076,48.795 7.076,64 C7.076,79.205 12.997,93.5 23.7485,104.2515 C34.5,115.003 48.795,120.924 64,120.924 C79.205,120.924 93.5,115.003 104.2515,104.2515 C115.003,93.5 120.924,79.205 120.924,64 C120.924,48.795 115.003,34.5 104.2515,23.7485 C93.5,12.997 79.205,7.076 64,7.076 Z"></path>
  <path fill="#000000" d="M43.325,47.608 C43.325,44.082 43.343,40.7445 43.3115,37.4075 C43.304,36.642 43.7815,36.3705 44.3205,36.1015 C46.6955,34.9155 49.263,34.3265 51.813,33.6745 C62.2305,31.01 72.4385,32.02 82.498,35.442 C85.1335,36.3385 85.1115,36.404 85.1115,39.152 L85.1115,47.551 C84.7005,47.6075 84.5165,47.3585 84.2975,47.208 C78.375,43.1495 71.941,40.154 65.1365,37.908 C64.216,37.6035 63.408,37.6165 62.497,37.9345 C55.935,40.2245 49.7295,43.217 43.998,47.1665 C43.83,47.2825 43.6565,47.391 43.325,47.608"></path>
  <path fill="#000000" d="M54.0975,23.1545 C54.0975,21.7825 54.1715,20.4045 54.074,19.0395 C53.994,17.924 54.5355,17.345 55.428,16.9165 C57.385,15.9765 59.4765,15.507 61.6095,15.25 C65.135,14.825 68.5515,15.3675 71.85,16.64 C73.78,17.385 73.917,17.633 73.917,19.6545 C73.917,22.2935 73.9,24.9325 73.928,27.571 C73.9355,28.2755 73.8605,28.5475 73.008,28.378 C66.9705,27.178 60.9205,27.158 54.887,28.415 C54.132,28.5725 54.077,28.2975 54.088,27.6935 C54.116,26.181 54.0975,24.6675 54.0975,23.1545"></path>
  <path fill="#000000" d="M111.315,78.819 C109.455,77.619 107.663,76.311 105.785,75.141 C101.9955,72.78 98.142,70.525 93.835,69.206 C92.53,68.8055 91.2005,68.409 89.805,68.842 C88.4315,69.269 87.3095,70.109 86.2345,71.0145 C83.943,72.9455 81.9345,75.1715 79.7835,77.2485 C79.5305,77.493 79.3705,77.9115 78.9155,77.8815 C78.788,77.6835 78.8855,77.526 78.9355,77.36 C81.0755,70.26 84.471,63.855 89.4985,58.365 C90.0205,57.7955 90.0445,57.511 89.4295,56.984 C82.197,50.789 74.1985,45.9435 65.093,43.011 C64.3935,42.786 63.7605,42.7495 63.062,42.996 C54.026,46.193 45.79,50.7745 38.5295,57.0705 C37.9725,57.553 38.0495,57.7935 38.511,58.2845 C41.9435,61.9355 44.544,66.134 46.4875,70.7385 C47.3305,72.7355 48.2275,74.7225 48.6035,76.8835 C49.38,80.1235 50.1185,87.6705 50.517,88.0435 C45.2885,86.7715 44.2365,86.197 40.942,84.594 C36.6205,82.492 32.21,81.165 27.318,81.461 C24.373,81.6395 21.887,82.179 19.1155,83.1155 C18.6255,83.2815 17.5865,83.8555 17.7855,84.267 C17.8505,84.4635 17.9,84.4745 17.984,84.6625 C20.689,90.7095 24.434,96.0295 29.2745,100.5455 C39.137,109.7465 50.823,114.5245 64.3255,114.561 C73.192,114.5855 81.495,112.2435 89.1395,107.748 C100.0145,101.353 107.61,92.2215 111.7935,80.283 C112.0385,79.583 111.928,79.2145 111.3155,78.819 L111.315,78.819 Z M65.9745,67.896 C65.8305,75.476 64.832,79.077 64.258,84.5275 C64.214,84.9465 64.0275,86.039 64.0275,86.039 C64.0275,86.039 63.696,84.6445 63.661,84.513 C63.056,79.56 62.5825,75.842 62.0125,70.885 C61.5545,66.903 61.3785,62.885 61.421,58.895 C61.446,56.5235 62.374,54.1625 62.8955,51.7965 C63.2375,50.244 63.5015,48.8315 64,47.1495 C64.5875,50.05 65.22,52.978 65.9405,55.8455 C66.955,59.8775 66.0505,63.8855 65.9745,67.8955 L65.9745,67.896 Z"></path>
  <path fill="#000000" d="M48.6035,77.0775 C50.7755,79.612 53.4925,81.4675 56.3325,83.1375 C58.327,84.31 60.4315,85.2865 62.703,85.834 C63.068,85.922 64.9365,86.304 65.4095,86.347 C66.039,86.4045 66.446,86.442 67.3445,86.4775 C65.1845,87.42 63.111,88.1725 60.9545,88.5545 C54.6425,89.354 49.1085,88.7565 43.456,86.122 C39.9835,84.504 36.621,82.7395 32.7745,82.1475 C27.902,81.3975 22.996,81.9715 18.4115,83.7315 C18.182,83.8195 18.0165,84.184 17.7855,84.267 C16.8815,82.509 16.3465,80.6145 15.7305,78.749 C15.5785,78.29 15.5785,78.29 16.0885,77.7555 C21.152,73.3375 26.817,70.412 33.7535,70.7495 C38.844,70.9975 43.29,72.9545 47.282,76.0415 C47.7245,76.384 48.163,76.732 48.6035,77.0775"></path>
</svg>