<svg width="167px" height="185px" viewBox="0 0 167 185">
    <path fill="#000000" d="M9.41487237,52 L131.1,52 C145.443317,52 158.218803,45.1015453 166.300569,34.4510899 C149.160937,13.439691 122.91694,0 93.5,0 C56.5435446,0 24.5949002,21.2116727 9.41487555,51.9999935 Z M9.36564341,132.9 L131.6,132.9 C145.862007,132.9 158.539463,139.686018 166.579553,150.205241 C149.446453,171.413648 123.077011,185 93.5,185 C56.5035466,185 24.5257501,163.742388 9.36564651,132.900006 Z M3.74417015,118.5 L120.6,118.5 C135,118.5 146.6,106.9 146.7,92.5 C146.7,78.2 135.1,66.5 120.7,66.5 L3.74417015,66.5 C1.30706231,74.7479019 -3.55271368e-15,83.4729431 -3.55271368e-15,92.5 C-3.55271368e-15,101.527057 1.30706231,110.252098 3.74417015,118.5 Z"></path>
</svg>