<svg width="128px" height="114px" viewBox="0 0 128 114" version="1.1" xmlns="http://www.w3.org/2000/svg" xmlns:xlink="http://www.w3.org/1999/xlink">
    <g id="Page-1" stroke="none" stroke-width="1" fill="none" fill-rule="evenodd">
        <g id="logo-google-cloud-platform" fill="#000000" fill-rule="nonzero">
            <path d="M63.9985,74.088 C54.341,74.088 46.4845,66.231 46.4845,56.5735 C46.4845,46.9165 54.341,39.06 63.9985,39.06 C73.6555,39.06 81.512,46.9165 81.512,56.5735 C81.512,66.231 73.6555,74.088 63.9985,74.088" id="Path"></path>
            <path d="M13.3635,31.1555 L12.6555,32.382 C12.5285,34.1925 12.8605,36.0835 13.6585,37.4655 L24.6105,56.1905 L30.4375,46.125 L13.3635,31.1555" id="Path"></path>
            <path d="M99.2325,4.358 L110.481,23.8405 C109.059,22.9685 107.423,22.415 105.961,22.415 L44.166,22.415 L24.6155,56.1905 L13.6635,37.4655 C12.865,36.0835 12.533,34.1925 12.66,32.382 L28.8395,4.358 C30.216,1.9735 33.596,0.022 36.35,0.022 L91.7215,0.022 C94.475,0.022 97.855,1.973 99.2325,4.358 Z M37.777,14.4185 C39.6424517,14.4165713 41.1542953,12.9049514 41.1565,11.0395 C41.1545704,9.17393451 39.6425658,7.66215361 37.777,7.6605 C35.9117436,7.66270415 34.4002041,9.17424358 34.398,11.0395 C34.4002041,12.9047564 35.9117436,14.4162959 37.777,14.4185 Z M93.148,11.0395 C93.1263505,9.32696452 91.7319223,7.95005297 90.01925,7.95005297 C88.3065777,7.95005297 86.9121495,9.32696452 86.8905,11.0395 C86.8762499,12.1667202 87.4694501,13.2144662 88.4433457,13.7822301 C89.4172412,14.3499939 90.6212588,14.3499939 91.5951543,13.7822301 C92.5690499,13.2144662 93.1622501,12.1667202 93.148,11.0395 Z" id="Combined-Shape"></path>
            <path d="M111.223,25.1175 L110.486,23.84 C109.065,22.968 107.429,22.415 105.967,22.415 L83.683,22.415 L89.483,32.6385 L111.223,25.1175" id="Path"></path>
            <path d="M126.9185,52.312 C128.296,54.697 128.296,58.5995 126.9185,60.9845 L99.2325,108.938 C97.8555,111.3225 94.4755,113.274 91.7215,113.274 L69.302,113.274 C70.62,112.4935 71.768,111.436 72.4395,110.274 L102.9455,56.377 L83.677,22.415 L105.961,22.415 C107.423,22.415 109.059,22.968 110.481,23.84 L126.9185,52.312 Z M90.019,104.991 C91.8846466,104.989071 93.3965708,103.477147 93.3985,101.6115 C93.3962953,99.7460486 91.8844517,98.2344287 90.019,98.2325 C88.1537436,98.2347041 86.6422041,99.7462436 86.64,101.6115 C86.6419287,103.476952 88.1535486,104.988795 90.019,104.991 Z M116.317,59.953 C118.182565,59.9510704 119.694346,58.4390658 119.696,56.5735 C119.693796,54.7082436 118.182256,53.1967041 116.317,53.1945 C114.451548,53.1964287 112.939705,54.7080486 112.9375,56.5735 C112.939429,58.4391466 114.451353,59.9510708 116.317,59.953 Z" id="Combined-Shape"></path>
            <path d="M67.4285,113.2735 L69.345,113.2735 C70.6635,112.4935 71.811,111.436 72.482,110.2735 L83.762,90.345 L71.75,90.345 L67.4285,113.2735" id="Path"></path>
            <path d="M44.592,90.345 L44.592,90.3445 L83.719,90.3445 L72.4395,110.273 C71.768,111.4355 70.62,112.493 69.302,113.273 L36.35,113.273 C33.596,113.273 30.216,111.322 28.8395,108.9375 L1.1535,60.984 C-0.2235,58.599 -0.2235,54.6965 1.1535,52.3115 L12.66,32.3815 C12.5335,34.192 12.8655,36.083 13.6635,37.465 L44.592,90.345 Z M37.777,104.991 C39.6427608,104.989346 41.154846,103.477261 41.1565,101.6115 C41.1545704,99.7459345 39.6425658,98.2341536 37.777,98.2325 C35.9117436,98.2347041 34.4002041,99.7462436 34.398,101.6115 C34.3999287,103.476952 35.9115486,104.988795 37.777,104.991 Z M11.4325,59.953 C13.2979514,59.9507953 14.8095713,58.4389517 14.8115,56.5735 C14.8092959,54.7082436 13.2977564,53.1967041 11.4325,53.1945 C9.56704832,53.1964287 8.05520468,54.7080486 8.053,56.5735 C8.05492917,58.4391466 9.56685336,59.9510708 11.4325,59.953 Z" id="Combined-Shape"></path>
        </g>
    </g>
</svg>