<svg width="207px" height="78px" viewBox="0 0 207 78" version="1.1" xmlns="http://www.w3.org/2000/svg" xmlns:xlink="http://www.w3.org/1999/xlink">
    <g id="Page-1" stroke="none" stroke-width="1" fill="none" fill-rule="evenodd">
        <g id="go" fill="#000000" fill-rule="nonzero">
            <path d="M16.2,24.1 C15.8,24.1 15.7,23.9 15.9,23.6 L18,20.9 C18.2,20.6 18.7,20.4 19.1,20.4 L54.8,20.4 C55.2,20.4 55.3,20.7 55.1,21 L53.4,23.6 C53.2,23.9 52.7,24.2 52.4,24.2 L16.2,24.1 Z" id="Path"></path>
            <path d="M1.1,33.3 C0.7,33.3 0.6,33.1 0.8,32.8 L2.9,30.1 C3.1,29.8 3.6,29.6 4,29.6 L49.6,29.6 C50,29.6 50.2,29.9 50.1,30.2 L49.3,32.6 C49.2,33 48.8,33.2 48.4,33.2 L1.1,33.3 Z" id="Path"></path>
            <path d="M25.3,42.5 C24.9,42.5 24.8,42.2 25,41.9 L26.4,39.4 C26.6,39.1 27,38.8 27.4,38.8 L47.4,38.8 C47.8,38.8 48,39.1 48,39.5 L47.8,41.9 C47.8,42.3 47.4,42.6 47.1,42.6 L25.3,42.5 Z" id="Path"></path>
            <path d="M129.1,22.3 C122.8,23.9 118.5,25.1 112.3,26.7 C110.8,27.1 110.7,27.2 109.4,25.7 C107.9,24 106.8,22.9 104.7,21.9 C98.4,18.8 92.3,19.7 86.6,23.4 C79.8,27.8 76.3,34.3 76.4,42.4 C76.5,50.4 82,57 89.9,58.1 C96.7,59 102.4,56.6 106.9,51.5 C107.8,50.4 108.6,49.2 109.6,47.8 C106,47.8 101.5,47.8 90.3,47.8 C88.2,47.8 87.7,46.5 88.4,44.8 C89.7,41.7 92.1,36.5 93.5,33.9 C93.8,33.3 94.5,32.3 96,32.3 C101.1,32.3 119.9,32.3 132.4,32.3 C132.2,35 132.2,37.7 131.8,40.4 C130.7,47.6 128,54.2 123.6,60 C116.4,69.5 107,75.4 95.1,77 C85.3,78.3 76.2,76.4 68.2,70.4 C60.8,64.8 56.6,57.4 55.5,48.2 C54.2,37.3 57.4,27.5 64,18.9 C71.1,9.6 80.5,3.7 92,1.6 C101.4,-0.1 110.4,1 118.5,6.5 C123.8,10 127.6,14.8 130.1,20.6 C130.7,21.5 130.3,22 129.1,22.3 Z" id="Path"></path>
            <path d="M162.2,77.6 C153.1,77.4 144.8,74.8 137.8,68.8 C131.9,63.7 128.2,57.2 127,49.5 C125.2,38.2 128.3,28.2 135.1,19.3 C142.4,9.7 151.2,4.7 163.1,2.6 C173.3,0.8 182.9,1.8 191.6,7.7 C199.5,13.1 204.4,20.4 205.7,30 C207.4,43.5 203.5,54.5 194.2,63.9 C187.6,70.6 179.5,74.8 170.2,76.7 C167.5,77.2 164.8,77.3 162.2,77.6 Z M186,37.2 C185.9,35.9 185.9,34.9 185.7,33.9 C183.9,24 174.8,18.4 165.3,20.6 C156,22.7 150,28.6 147.8,38 C146,45.8 149.8,53.7 157,56.9 C162.5,59.3 168,59 173.3,56.3 C181.2,52.2 185.5,45.8 186,37.2 Z" id="Shape"></path>
        </g>
    </g>
</svg>