<?xml version="1.0" encoding="UTF-8"?>
<svg width="115px" height="128px" viewBox="0 0 115 128" version="1.1" xmlns="http://www.w3.org/2000/svg" xmlns:xlink="http://www.w3.org/1999/xlink">
    <!-- Generator: Sketch 55.2 (78181) - https://sketchapp.com -->
    <title>gql</title>
    <desc>Created with Sketch.</desc>
    <g id="Page-1" stroke="none" stroke-width="1" fill="none" fill-rule="evenodd">
        <g id="gql" fill="#000000" fill-rule="nonzero">
            <path d="M46.2079338,113.314574 L19.9220535,98.1379688 C19.1896106,98.9067708 18.3368055,99.5862109 17.3714286,100.146939 C11.8857143,103.281633 4.93061224,101.420408 1.79591837,95.9673469 C-1.33877551,90.5142857 0.52244898,83.5591837 5.9755102,80.3918367 C6.93966089,79.8375944 7.95076754,79.4395318 8.97959184,79.1898879 L8.97959184,48.8173694 C7.93886977,48.5682131 6.91640518,48.1678076 5.94285714,47.6081633 C0.489795918,44.4734694 -1.37142857,37.4857143 1.76326531,32.0326531 C4.89795918,26.5795918 11.8857143,24.7183673 17.3387755,27.8530612 C18.3144793,28.4197874 19.17519,29.107779 19.9128644,29.886734 L46.212815,14.702005 C45.9096234,13.6751155 45.7469388,12.5874627 45.7469388,11.4612245 C45.7469388,5.15918367 50.8408163,0.0653061224 57.1428571,0.0653061224 C63.444898,0.0653061224 68.5387755,5.15918367 68.5387755,11.4612245 C68.5387755,12.5936519 68.3742979,13.6870685 68.0678881,14.718929 L94.360729,29.8995531 C95.1010908,29.1153259 95.9658861,28.4228942 96.9469388,27.8530612 C102.4,24.7183673 109.355102,26.5795918 112.522449,32.0326531 C115.657143,37.4857143 113.795918,44.4408163 108.342857,47.6081633 C107.369309,48.1678076 106.346845,48.5682131 105.306122,48.8173694 L105.306122,79.190499 C106.335577,79.4401812 107.34684,79.8380465 108.310204,80.3918367 C113.795918,83.5591837 115.657143,90.5142857 112.489796,95.9673469 C109.355102,101.420408 102.367347,103.281633 96.9142857,100.146939 C95.8286777,99.5228767 94.8854277,98.7461033 94.0956144,97.8591299 L67.963131,112.947291 C68.3366567,114.07604 68.5387755,115.283438 68.5387755,116.538776 C68.5387755,122.808163 63.444898,127.934694 57.1428571,127.934694 C50.8408163,127.934694 45.7469388,122.840816 45.7469388,116.538776 C45.7469388,115.418596 45.9078777,114.336589 46.2079338,113.314574 Z M48.9330094,108.628956 C51.0047976,106.478867 53.9153903,105.142857 57.1428571,105.142857 C60.4850878,105.142857 63.4875086,106.575569 65.5705086,108.861383 L91.7548861,93.7434468 C91.6763235,93.4967173 91.6061174,93.2473846 91.5443902,92.9959184 L22.7383917,92.9959184 C22.7019095,93.1436353 22.6624917,93.2906212 22.6201633,93.4367818 L48.9330094,108.628956 Z M14.8489234,79.3250312 L49.2704296,19.7069393 C49.1597943,19.6012952 49.0512878,19.4934414 48.9449803,19.3834483 L22.5968951,34.5958042 C23.4176522,37.4615431 23.1206457,40.6412746 21.5183673,43.4285714 C19.9140606,46.2193968 17.300523,48.0694138 14.4,48.790401 L14.4,79.2044654 C14.5504325,79.2416183 14.7001067,79.2818157 14.8489234,79.3250312 Z M99.8857143,79.2015331 L99.8857143,48.790401 C96.9851913,48.0694138 94.3716537,46.2193968 92.7673469,43.4285714 C91.1682778,40.6468574 90.8692571,37.474279 91.683901,34.6130274 L65.3283781,19.3962128 C65.2283365,19.4994016 65.1263562,19.6006993 65.0224953,19.700048 L99.4445832,79.3191472 C99.5908262,79.2770295 99.7379016,79.2378165 99.8857143,79.2015331 Z M91.5333562,87.5755102 C91.7830383,86.5460558 92.1809036,85.5347929 92.7346939,84.5714286 C93.2917444,83.6023928 93.9704709,82.7467837 94.7406386,82.0124807 L60.3269075,22.4078554 C59.3167205,22.7003883 58.2483783,22.8571429 57.1428571,22.8571429 C56.0408333,22.8571429 54.9757535,22.7013785 53.9683957,22.4106276 L19.5481191,82.0265897 C20.3144283,82.7577366 20.9917684,83.6085926 21.5510204,84.5714286 C22.1052627,85.5355793 22.5033254,86.5466859 22.7529692,87.5755102 L91.5333562,87.5755102 Z" id="Combined-Shape"></path>
        </g>
    </g>
</svg>