<svg width="128px" height="125px" viewBox="0 0 128 125" version="1.1" xmlns="http://www.w3.org/2000/svg" xmlns:xlink="http://www.w3.org/1999/xlink">
    <g id="Page-1" stroke="none" stroke-width="1" fill="none" fill-rule="evenodd">
        <g id="k8s" fill="#000000" fill-rule="nonzero">
            <path d="M63.5077455,0.0435618182 C64.9287471,-0.0282885069 66.345185,0.254999068 67.6270636,0.867425455 L112.058882,22.0833345 C114.388144,23.1957224 116.079965,25.2995189 116.655473,27.7992436 L127.632745,75.4810618 C128.208341,77.981944 127.603919,80.6066833 125.9907,82.6117436 L95.2520636,120.85038 C93.6385682,122.852307 91.1941012,124.017036 88.6100182,124.015153 L39.2975182,124.026517 C36.7124683,124.026517 34.267829,122.860118 32.6554727,120.856062 L1.90547273,82.6231073 C1.73355989,82.407568 1.57238237,82.1838156 1.42251818,81.9526527 C0.173838227,80.0422364 -0.2422111,77.7119502 0.269109091,75.4924255 L11.2293364,27.8106073 C11.8048443,25.3108825 13.4966647,23.207086 15.8259273,22.0946982 L60.2520636,0.867425455 C61.2711671,0.380569331 62.3780393,0.100470771 63.5077455,0.0435618182 Z M63.9479564,16.2703127 C62.4794182,16.2703127 61.2886909,17.5932055 61.2888655,19.2248564 C61.2888673,19.2498982 61.2939927,19.2738273 61.2945382,19.29872 C61.2923745,19.5204218 61.2816655,19.7875127 61.2888655,19.9805382 C61.3238873,20.9216291 61.5290291,21.6419 61.6525018,22.5089473 C61.8761891,24.3647036 62.0636236,25.9030127 61.9479564,27.3328109 C61.8354673,27.8719745 61.4383418,28.3650673 61.08432,28.7078109 L61.02182,29.8328109 C59.4260345,29.9650236 57.8195745,30.2071273 56.2150018,30.5714473 C49.3105273,32.1391164 43.3658964,35.6956418 38.8400018,40.4975836 C38.5463255,40.2972327 38.0325418,39.9286491 37.8797655,39.8157655 C37.4050073,39.8798782 36.9251818,40.0263636 36.30022,39.6623564 C35.1102364,38.8613327 34.0264255,37.7556418 32.7149927,36.42372 C32.1140873,35.7865945 31.6789345,35.1799 30.9649927,34.5657655 C30.8028618,34.4262982 30.5554327,34.2376655 30.3740836,34.0941745 C29.8159236,33.6491618 29.1575927,33.41708 28.5218109,33.3953109 C27.7043764,33.3673218 26.9174582,33.68692 26.4024927,34.3328109 C25.487,35.4810618 25.7801073,37.2360927 27.0559018,38.2532655 C27.0688473,38.2635745 27.0826327,38.2715891 27.0956745,38.2816745 C27.2709873,38.4237873 27.4856673,38.60588 27.6468109,38.7248564 C28.4044236,39.2842291 29.0964836,39.5705745 29.8513564,40.0146291 C31.44172,40.9967764 32.7601509,41.8111491 33.8059018,42.7930382 C34.2142691,43.2283418 34.2856436,43.9953873 34.3399927,44.3271291 L35.1922655,45.0884927 C30.6298255,51.9546164 28.5182909,60.4356673 29.7661382,69.0771291 L28.6525018,69.4009927 C28.3589927,69.7800127 27.9442455,70.3764 27.5104473,70.5544018 C26.1422418,70.9853491 24.6024036,71.1436 22.7434018,71.3384927 C21.8706182,71.4110655 21.1175509,71.3677564 20.1922655,71.5430382 C19.9886145,71.5816164 19.7048618,71.6555418 19.4820382,71.7078109 C19.4742927,71.7094473 19.4670564,71.7117382 19.4593109,71.7134836 C19.4471655,71.7163018 19.4312091,71.7221927 19.4195382,71.7248473 C17.85224,72.1035364 16.8454036,73.54412 17.1695382,74.9634836 C17.4937491,76.38318 19.0246545,77.2465327 20.6013564,76.9066655 C20.6127382,76.9040655 20.6292655,76.9036291 20.6411291,76.9009927 C20.6589291,76.89692 20.6746,76.8882836 20.6922655,76.8839564 C20.9120564,76.8357091 21.1874964,76.7820291 21.3797655,76.7305473 C22.2894636,76.4869782 22.9483,76.1291 23.7661291,75.8157745 C25.5255727,75.1847255 26.9828073,74.6575527 28.4024927,74.4521382 C28.9954345,74.4056982 29.6201491,74.8179855 29.9309018,74.9919109 L31.0899927,74.7930473 C33.7572982,83.0626509 39.3471127,89.7466873 46.42522,93.9407745 L45.9422655,95.0998655 C46.1163418,95.5499418 46.30834,96.1589018 46.1786691,96.6033782 C45.6625455,97.9417782 44.7784927,99.3544636 43.7718109,100.929411 C43.2843836,101.657033 42.7855327,102.221704 42.3456745,103.054411 C42.24042,103.253664 42.1063691,103.559742 42.0047655,103.770313 C41.32134,105.232567 41.8226491,106.91672 43.1354473,107.548729 C44.4564927,108.184707 46.09626,107.51394 46.8059018,106.048729 C46.8069927,106.046656 46.8105745,106.045129 46.8115745,106.043056 C46.8123018,106.04142 46.8108473,106.038965 46.8115745,106.037384 C46.9126527,105.829647 47.0558527,105.556589 47.14112,105.361247 C47.5178709,104.498153 47.6432309,103.758509 47.9081655,102.923747 C48.6117327,101.156449 48.9982873,99.3021055 49.9668164,98.1466364 C50.2320309,97.8302309 50.6644182,97.7085455 51.1127109,97.58852 L51.7149836,96.4976109 C57.8855727,98.86612 64.7925582,99.5016945 71.6922564,97.9351109 C73.2662509,97.5777345 74.7857909,97.1152109 76.2547564,96.5601109 C76.4240255,96.8603527 76.7385982,97.4375109 76.8229382,97.5828382 C77.2785,97.7310527 77.7757455,97.8075909 78.1808927,98.4067018 C78.9055091,99.6446982 79.4010564,101.109276 80.0047564,102.878293 C80.2697345,103.71304 80.4006873,104.452716 80.7774836,105.315793 C80.8633636,105.512511 81.0058473,105.789404 81.1070291,105.997611 C81.8151782,107.467582 83.4601418,108.140642 84.7831655,107.503293 C86.0958018,106.870947 86.5976636,105.186947 85.9138473,103.724884 C85.8122309,103.514313 85.67252,103.208222 85.5672564,103.008975 C85.1273545,102.176291 84.6285836,101.617251 84.14112,100.889656 C83.1343545,99.3147618 82.29936,98.0064382 81.7831655,96.6680655 C81.5673273,95.97778 81.81958,95.5484764 81.9877109,95.0998836 C81.8870236,94.9844709 81.6715636,94.3325945 81.5445291,94.02602 C88.90042,89.6827182 94.3260855,82.7494218 96.8740745,74.7419291 C97.2181473,74.7960055 97.8161727,74.9018127 98.0104382,74.9407927 C98.4103545,74.6770291 98.7780636,74.33288 99.4990745,74.3896564 C100.918769,74.5949964 102.375962,75.1223345 104.135438,75.7532927 C104.953284,76.0665764 105.612093,76.4302255 106.521802,76.6737473 C106.714073,76.7252182 106.989507,76.7732382 107.209302,76.8214745 C107.226975,76.8258018 107.242629,76.8344564 107.260438,76.8385109 C107.272311,76.8411655 107.288829,76.8415836 107.300211,76.8441836 C108.877004,77.1836291 110.408182,76.3207818 110.732029,74.9010018 C111.0558,73.4815545 110.049429,72.0406364 108.482029,71.6623655 C108.254042,71.6105236 107.930711,71.5224782 107.709302,71.4805473 C106.784007,71.3053145 106.030953,71.3485291 105.158165,71.2760018 C103.299155,71.0812055 101.759347,70.9227855 100.39112,70.4919109 C99.8332545,70.2754964 99.4363873,69.6116855 99.2433836,69.3385018 L98.16952,69.0260018 C98.7262945,64.9979255 98.5761655,60.8057582 97.6127018,56.6112291 C96.6402673,52.3776455 94.9217255,48.5056218 92.6297473,45.0941836 C92.9052109,44.8437673 93.4254182,44.3831091 93.5729291,44.2475927 C93.6160491,43.7704709 93.5790018,43.2702236 94.0729291,42.7419109 C95.1186273,41.7599673 96.4371636,40.9457327 98.0274745,39.9635018 C98.7823236,39.5194073 99.4801182,39.2331418 100.237702,38.6737291 C100.40902,38.5472273 100.642956,38.3468945 100.822929,38.2021382 C102.098453,37.1846236 102.392125,35.4296982 101.476338,34.2816836 C100.560551,33.1336691 98.7859527,33.0255327 97.5104291,34.0430473 C97.3288727,34.1868382 97.0825145,34.3744145 96.91952,34.5146382 C96.2056109,35.1288127 95.7647109,35.7354364 95.1638382,36.3725927 C93.8524764,37.7045836 92.7685527,38.8158236 91.5786109,39.6169109 C91.0629727,39.9171036 90.3077091,39.8132345 89.9649655,39.7930473 L88.9536018,40.5146382 C83.1865473,34.4672618 75.3345727,30.6009182 66.8797745,29.8498564 C66.8561273,29.4955436 66.8251473,28.8550982 66.8172745,28.6623564 C66.4711455,28.3311473 66.0530164,28.0483818 65.9479564,27.3328109 C65.8322891,25.9030127 66.0254055,24.3647036 66.2490927,22.5089473 C66.3725655,21.6419 66.5777073,20.9216291 66.6127291,19.9805382 C66.6206927,19.7666055 66.6079109,19.4561727 66.6070564,19.2248564 C66.6068818,17.5932055 65.4165036,16.2703127 63.9479655,16.2703127 Z M60.6184109,36.8953109 L59.8286382,50.8441745 L59.77182,50.8725836 C59.7188491,52.1204655 58.6918273,53.1169018 57.4309109,53.1169018 C56.9144,53.1169018 56.4376491,52.9510309 56.0502291,52.6680382 L56.0275018,52.6794018 L44.5900018,44.5714473 C48.1052109,41.1148745 52.60144,38.5604673 57.7831836,37.3839473 C58.7297273,37.1690327 59.6758491,37.0095655 60.6184109,36.8953109 Z M67.2831836,36.8953109 C73.3329055,37.6393691 78.9277309,40.3787327 83.2150018,44.5771291 L71.8513655,52.6339473 L71.8115927,52.6169109 C70.8029655,53.3535818 69.3818782,53.1708 68.5956836,52.1850927 C68.2736255,51.7812818 68.1046436,51.3064764 68.08432,50.8271382 L68.0729564,50.8214655 L67.2831836,36.8953109 Z M40.4422745,49.7816745 L50.8854564,59.1225836 L50.8740927,59.1794018 C51.8167055,59.9988509 51.9557073,61.4208455 51.1695473,62.4066745 C50.8475109,62.8105018 50.4164418,63.0813545 49.9536382,63.2078109 L49.9422745,63.2532655 L36.5559109,67.1169018 C35.8745873,60.8868709 37.34292,54.8307855 40.4422745,49.7816745 Z M87.3797745,49.7873473 C88.9314291,52.3023582 90.10642,55.1113727 90.8059109,58.1566655 C91.4970127,61.1654436 91.6704545,64.1688418 91.3854564,67.0714382 L77.9309109,63.1964382 L77.9195473,63.13962 C76.7147291,62.81034 75.9742873,61.58478 76.2547745,60.3555291 C76.3696891,59.8519618 76.6369964,59.4259582 76.9990927,59.1112109 L76.99342,59.0828018 L87.3797836,49.7873473 Z M61.8059109,59.8441655 L66.08432,59.8441655 L68.7434109,63.1680291 L67.7888655,67.3157564 L63.9479564,69.1623473 L60.0956836,67.3100745 L59.1411382,63.1623473 L61.8059109,59.8441655 Z M75.52182,71.2191655 C75.7036327,71.2099836 75.8846527,71.2263655 76.0615927,71.2589382 L76.08432,71.2305291 L89.9309109,73.5714382 C87.9044564,79.2647291 84.0267636,84.1969255 78.8456836,87.4975745 L73.4706836,74.51462 L73.48772,74.4918927 C72.9939727,73.3446218 73.4880836,71.9992455 74.6240836,71.45212 C74.9149291,71.3120455 75.2187909,71.2344818 75.5218109,71.2191655 Z M52.2661382,71.2759836 C53.3228182,71.2908018 54.2706145,72.0242109 54.5161382,73.0998473 C54.6310818,73.6034073 54.5751382,74.1023473 54.3854564,74.5430291 L54.4252291,74.5941655 L49.1070473,87.4464382 C44.1348364,84.2557836 40.1744527,79.4784327 38.0559109,73.6169018 L51.7831836,71.2873564 L51.8059109,71.3157655 C51.9594582,71.2875091 52.1151836,71.2738745 52.2661382,71.2759927 Z M63.8627291,76.9066745 C64.2308109,76.8931473 64.6043018,76.9686709 64.95932,77.1396291 C65.4246855,77.3637255 65.78418,77.7165727 66.0104564,78.1396291 L66.0615927,78.1396291 L72.8286382,90.3669018 C71.9504036,90.6613073 71.0475309,90.9129164 70.1240927,91.1225836 C64.9487236,92.2976564 59.7897982,91.9416145 55.1184109,90.3498564 L61.8684109,78.1453109 L61.8797745,78.1453109 C62.2848055,77.3881455 63.0529509,76.9364255 63.8627291,76.9066745 Z" id="Combined-Shape"></path>
        </g>
    </g>
</svg>