<svg viewBox="0 0 30 30">
  <path fill="#000000" d="M3,0 L27,0 C28.6568542,-3.04359188e-16 30,1.34314575 30,3 L30,27 C30,28.6568542 28.6568542,30 27,30 L3,30 C1.34314575,30 2.02906125e-16,28.6568542 0,27 L0,3 L0,3 C-2.02906125e-16,1.34314575 1.34314575,3.04359188e-16 3,0 L3,0 Z M11.514,11.343 C12.348,14.283 13.427,17.125 14.695,19.889 L16.088,19.889 C17.408,16.973 18.562,14.147 19.267,11.343 L17.692,11.343 C17.1,13.6 16.399,15.8 15.444,18.033 C14.601,16.048 13.845,13.849 13.181,11.343 L11.514,11.343 Z M6.016,7 L6.017,7 L6.017,8.193 L8.282,8.193 L8.282,21.67 L6,21.67 L6,22.895 L9.723,22.895 L9.723,7 L6.016,7 Z M24.786,8.193 L24.787,8.193 L24.787,7 L21.08,7 L21.08,22.895 L24.803,22.895 L24.803,21.67 L22.521,21.67 L22.521,8.193 L24.786,8.193 Z"></path>
</svg>