<svg viewBox="0 0 24 23">
    <path fill="#000000" d="M12.7632024,22.4229873 L12.7632024,22.4229873 C12.7220674,22.4730424 12.6761653,22.5189814 12.6261433,22.5601566 C12.1997367,22.9111493 11.5695301,22.8500143 11.2185374,22.4236078 L0.272351476,9.12553925 C-0.0132424503,8.778583 -0.0323215089,8.28373121 0.225710456,7.91581541 L0.225710456,7.91581541 L4.45972982,1.87872381 C4.63204087,1.63303349 4.90558033,1.47771429 5.20485802,1.45563051 L5.20485802,1.45563051 L11.918016,0.960264852 C11.9667711,0.956667201 12.0157244,0.956649669 12.064482,0.960212397 L12.064482,0.960212397 L18.8433549,1.45554551 C19.1459587,1.47765681 19.4221586,1.63595828 19.5941937,1.88588203 L19.5941937,1.88588203 L23.7465487,7.9182075 C23.9993388,8.28544794 23.9784856,8.77567382 23.6954217,9.12012009 L12.7632024,22.4229873 Z M4.03785084,8.00535301 L4.36646412,3.80325883 L1.44227431,8.00535301 L4.03785084,8.00535301 Z M11.9981554,2.18229167 L5.77141204,8.00202546 L18.2248987,8.00202546 L11.9981554,2.18229167 Z M12.0022154,21.4529261 L18.6705006,9 L5.33393012,9 L12.0022154,21.4529261 Z M18.5437645,2.46053964 L13.398763,2.10141782 L18.9001374,7.24934896 L18.5437645,2.46053964 Z M5.46039497,2.45880353 L5.08944589,7.27264178 L10.6293403,2.09700521 L5.46039497,2.45880353 Z M19.9754774,7.99815538 L22.5399306,7.99815538 L19.6318721,3.81405527 L19.9754774,7.99815538 Z M19.7926794,8.99622034 L14.8260272,18.2870009 L22.4450955,8.99622034 L19.7926794,8.99622034 Z M4.21240234,8.99589482 L1.55230035,8.99589482 L9.16787833,18.2660229 L4.21240234,8.99589482 Z"></path>
</svg>