<svg width="128px" height="128px" viewBox="0 0 128 128" version="1.1" xmlns="http://www.w3.org/2000/svg" xmlns:xlink="http://www.w3.org/1999/xlink">
    <g id="Page-1" stroke="none" stroke-width="1" fill="none" fill-rule="evenodd">
        <g id="styled" fill="#000000" fill-rule="nonzero">
            <path d="M104.973973,74.2217856 C104.662331,71.7428772 103.273793,70.6831969 102.163212,70.2308304 C100.466776,69.5391813 97.3134347,69.208577 89.4203509,73.8707212 C90.1381988,70.8962807 89.855501,67.6945341 88.4732008,64.8198986 C91.1941365,61.4232827 94.297575,56.7539025 93.8641715,53.2871735 C93.5505341,50.7783236 92.149271,49.7089123 91.02846,49.2535517 C84.6351969,46.6541287 70.113809,58.3205926 64.7118596,62.6389084 C64.8890136,60.769809 64.6409981,58.8530526 63.9358752,57.0430877 C66.5889435,53.7966784 69.8263704,49.1073372 69.3942144,45.6493411 C69.0760858,43.1038129 67.5403353,42.1189864 66.6530682,41.758191 C63.0383782,40.2885614 57.177076,43.5219961 53.0833216,46.0819961 C46.9128733,49.9402105 47.0725614,50.1038908 4.51443275,84.2534425 C1.64553606,86.5559454 0,89.9864951 0,93.6650604 C0,97.702425 0,116.230986 0,120.332476 C0,124.422737 3.32775049,127.750487 7.4180117,127.750487 L20.1611228,127.750487 L20.1611228,124.007548 L7.4180117,124.007797 C5.3917193,124.007797 3.74293957,122.359267 3.74293957,120.332725 L3.74293957,116.363228 L55.9636959,74.4600702 C57.5690604,83.4799532 67.6603509,83.9056218 73.4363197,79.6713918 C77.0607407,77.0110877 82.3311969,71.8045068 85.7086004,68.0540819 C86.734846,71.7501131 85.5152281,75.8391267 82.3943236,78.3432359 C82.3606394,78.3701832 74.5978012,84.598768 25.4717505,124.007797 L20.1611228,124.007797 L20.1611228,127.750487 C28.8179649,127.750487 51.161076,127.750487 59.8174191,127.750487 C63.2791579,127.750487 66.6727797,126.557318 69.3727563,124.39055 L82.5026121,113.854378 L80.1596881,110.93508 L67.0300819,121.471251 C64.9918129,123.106807 62.4300663,124.007548 59.8171696,124.007548 L31.4672904,124.007548 L67.4065965,95.1688733 C67.7357037,96.9551345 68.3385263,98.3049981 69.0132086,99.2628772 C71.827961,103.269053 78.4188382,103.782051 83.1683119,101.231033 C86.0352125,99.6895439 91.4354152,94.4667446 93.6917583,92.1814581 C94.7466979,96.0019961 93.4769279,100.24945 90.2719376,102.821177 L80.1596881,110.93508 L82.5026121,113.854378 L92.6146121,105.740476 C97.5751735,101.76 99.1458558,94.8447563 96.5609045,89.1568655 C98.8244834,86.6674776 105.59975,79.1995634 104.973973,74.2217856 Z M55.0938947,49.2393294 C62.6067212,44.5459961 64.867306,45.0722183 65.2438207,45.2259181 C65.3463704,45.2675867 65.5864016,45.3651462 65.6799688,46.1139337 C66.2780507,50.8933489 51.4904327,65.2420741 47.4513216,67.9143548 C43.9970682,70.1449981 39.532039,69.5706199 38.085614,67.6064561 C37.0306745,66.1750019 37.011961,64.0568889 36.923384,63.0468616 C44.8082339,56.7324444 49.1886784,52.9281248 55.0938947,49.2393294 Z M56.4425107,69.2746979 C53.3081326,71.7852943 6.72561404,109.094924 3.74293957,111.483758 L3.74293957,93.6650604 C3.74293957,91.1272671 4.87797271,88.7613879 6.85710721,87.1729903 L33.446924,65.8366628 C34.1418168,69.4755556 35.9430487,71.3813333 38.5918752,72.408078 C41.0608031,73.3649591 44.1258168,73.433076 47.0371306,72.3170058 C51.071501,70.7695283 58.073575,63.6037739 60.9656764,60.4474386 C61.6750409,66.2613333 56.8517115,68.7729279 56.4425107,69.2746979 Z M71.2505887,76.632577 C67.4492632,79.4336062 62.0620351,78.926347 60.4861131,76.2590565 C59.7340819,74.9870409 59.4733411,73.1259259 59.4598674,71.6545497 C67.5101442,65.1767018 72.5173645,60.8845848 78.7626667,56.9829552 C86.7705263,51.9802261 89.2110097,52.5553528 89.619462,52.7210292 C89.7569435,52.7769201 90.042885,52.8934425 90.1501754,53.7512671 C90.7959142,58.9169279 75.5427057,73.4779883 71.2505887,76.632577 Z M82.0664639,97.536 C78.9632749,99.5313528 73.6855828,99.7549162 71.9317583,96.8885146 C71.1330682,95.5723353 70.9159922,93.6211462 70.8947836,92.3695906 C80.9930604,84.3020975 84.0428538,81.594885 90.0082027,77.8898713 C97.9382144,72.9644912 100.348507,73.5323821 100.75122,73.6968109 C100.882713,73.7504561 101.156928,73.8622378 101.260725,74.6886238 C101.907712,79.841809 86.0107602,94.9809903 82.0664639,97.536 Z" id="Shape"></path>
            <path d="M127.750737,8.22194152 L127.750737,5.02892788 C127.750737,2.25609357 125.494394,0 122.721559,0 L105.351485,0 C102.578402,0 100.322558,2.25609357 100.322558,5.02892788 L100.322558,16.9162105 C100.322558,19.4250604 102.007517,21.6574503 104.420055,22.3453567 L108.349879,23.4659181 L108.349879,38.9569123 C108.349879,40.0934425 108.701942,41.1491306 109.30177,42.0216764 C109.04552,46.4133489 107.690667,55.6959688 101.02768,61.2573567 C99.2119766,62.7723977 99.2344327,65.5799142 101.066854,67.0897154 C104.286316,69.4613333 105.314308,71.3726004 107.989084,71.3726004 C109.801045,71.3726004 111.472031,70.3738012 112.303158,68.7187836 C114.30375,64.7330682 117.658947,56.064499 117.943641,42.4206472 C118.725864,41.4804834 119.197193,40.2725926 119.197193,38.9569123 L119.197193,26.5591267 C120.066246,26.6220039 122.876507,28.4007797 125.694752,26.2741832 C127.001201,25.2883587 127.750737,23.7837973 127.750737,22.1469942 L127.750737,8.22194152 L124.008047,8.22194152 L124.008047,22.1469942 C124.008047,22.5991111 123.801201,23.0145497 123.440405,23.2865185 C122.489014,24.0053645 121.820819,23.2515867 117.839595,22.2794854 C115.413333,21.5875867 107.928452,19.4532554 105.446799,18.7456374 C104.633637,18.5138402 104.065996,17.7615595 104.065996,16.9162105 L104.065996,5.02892788 C104.065996,4.33178947 104.654846,3.74293957 105.351984,3.74293957 L122.722058,3.74293957 C123.419197,3.74293957 124.008047,4.33178947 124.008047,5.02892788 L124.008047,8.22194152 L127.750737,8.22194152 Z M108.957692,67.0395634 C108.648546,67.6546121 107.843119,67.8227836 107.305918,67.3798986 L103.446207,64.2006082 C103.411025,64.1716647 103.423501,64.1319922 103.425497,64.1307446 C109.218932,59.2954386 112.048655,51.8070643 112.865809,44.3059649 C113.282994,44.3755789 113.724632,44.3962885 114.136827,44.3685926 C113.606113,56.1036725 110.717255,63.5346589 108.957692,67.0395634 Z M112.09207,24.5333333 L115.454004,25.491961 L115.454004,38.9569123 C115.454004,39.462924 115.228195,39.916538 114.873138,40.2246862 C113.758066,41.1735828 112.09207,40.3746433 112.09207,38.9569123 L112.09207,24.5333333 Z" id="Shape"></path>
        </g>
    </g>
</svg>