<?xml version="1.0" encoding="UTF-8" standalone="no"?>
<svg width="150px" height="150px" viewBox="0 0 150 150">
    <g id="Page-1" stroke="none" stroke-width="1" fill="none" fill-rule="evenodd">
        <g id="jakepeyser-logo" stroke="#FFFFFF" fill="#000000">
            <path d="M100.5,0.5 L24.5,0.5 L24.5,25.5 L74.8,25.5 L74.9,25.5 L75.5,25.5 L75.5,26.4 L75.5,26.4 L75.5,38 L75.5,100 C75.5,113.8 64.6,125.3 50.7,125.3 C36.9,125.3 25.9,114.6 25.9,100.6 L22.4,100.6 L0.9,100.6 C1.2,128 23.5,150.1 50.9,150.1 C78.3,150.1 100.6,128 100.9,100.6 C128.3,100.3 150.4,78.1 150.4,50.6 C150.5,22.9 128.1,0.5 100.5,0.5 Z M100.5,75 L100.5,25 C113.5,25 125.5,36.2 125.5,50 C125.5,63.8 113.5,75 100.5,75 Z" id="Shape"></path>
        </g>
    </g>
</svg>
